<?xml version="1.0" encoding="UTF-8" standalone="no"?>
<!-- Uploaded to: SVG Repo, www.svgrepo.com, Generator: SVG Repo Mixer Tools -->

<svg
   version="1.1"
   id="Uploaded to svgrepo.com"
   width="800px"
   height="800px"
   viewBox="0 0 64 64"
   xml:space="preserve"
   sodipodi:docname="build-blocks_text.svg"
   inkscape:version="1.3.2 (091e20ef0f, 2023-11-25)"
   xmlns:inkscape="http://www.inkscape.org/namespaces/inkscape"
   xmlns:sodipodi="http://sodipodi.sourceforge.net/DTD/sodipodi-0.dtd"
   xmlns="http://www.w3.org/2000/svg"
   xmlns:svg="http://www.w3.org/2000/svg"><defs
   id="defs9"><rect
     x="106.78814"
     y="612.74247"
     width="92.918175"
     height="47.110342"
     id="rect10" /></defs><sodipodi:namedview
   id="namedview9"
   pagecolor="#ffffff"
   bordercolor="#000000"
   borderopacity="0.25"
   inkscape:showpageshadow="2"
   inkscape:pageopacity="0.0"
   inkscape:pagecheckerboard="0"
   inkscape:deskcolor="#d1d1d1"
   inkscape:zoom="0.88770981"
   inkscape:cx="508.04891"
   inkscape:cy="434.26353"
   inkscape:window-width="1920"
   inkscape:window-height="1080"
   inkscape:window-x="0"
   inkscape:window-y="0"
   inkscape:window-maximized="1"
   inkscape:current-layer="Uploaded to svgrepo.com" />
<style
   type="text/css"
   id="style1">
	.fandom_een{fill:#FF786E;}
	.fandom_twee{fill:#BE5652;}
	.fandom_drie{fill:#BE9148;}
	.fandom_vier{fill:#FFC865;}
	.fandom_vijf{fill:#018273;}
	.fandom_zes{fill:#00B3AA;}
	.fandom_zeven{fill:#508D9B;}
	.fandom_acht{fill:#6BC4D2;}
	.st0{fill:#8579A3;}
	.st1{fill:#685683;}
	.st2{fill:#EFEAE0;}
	.st3{fill:#AA9991;}
	.st4{fill:#3A3A3A;}
	.st5{fill:#666666;}
	.st6{fill:#4D4D4D;}
	.st7{fill:#CCCCCC;}
	.st8{fill:#808080;}
	.st9{fill:#644638;}
	.st10{fill:#4B322A;}
	.st11{fill:#FFFAFA;}
</style>
<g
   id="g9"
   transform="matrix(0.73785616,0,0,0.73785616,6.8812434,-0.0600463)">
	<g
   id="g2">
		<path
   class="fandom_vier"
   d="M 32,7 C 18.193,7 7,18.193 7,32 H 57 C 57,18.193 45.807,7 32,7 Z"
   id="path1" />
		<path
   class="fandom_drie"
   d="M 32,57 C 45.807,57 57,45.807 57,32 H 7 c 0,13.807 11.193,25 25,25 z"
   id="path2" />
	</g>
	<g
   id="g8">
		<path
   class="fandom_zes"
   d="M 18.262,27.988 4.02,29.99 9,32.521 V 47.834 L 23,45.832 V 30.468 Z m -5.695,17.379 c -1.226,0.172 -2.225,-0.768 -2.222,-2.091 0.003,-1.331 1.006,-2.544 2.231,-2.716 1.234,-0.173 2.225,0.759 2.222,2.091 -0.002,1.323 -0.998,2.543 -2.231,2.716 z m 0.012,-6.726 c -1.226,0.172 -2.225,-0.768 -2.222,-2.091 0.002,-1.323 1.006,-2.544 2.231,-2.716 1.234,-0.173 2.225,0.768 2.223,2.091 -0.003,1.322 -0.998,2.542 -2.232,2.716 z m 6.22,5.85 c -1.234,0.173 -2.225,-0.768 -2.222,-2.091 0.002,-1.331 0.998,-2.543 2.231,-2.717 1.226,-0.172 2.225,0.759 2.222,2.091 -0.002,1.324 -1.006,2.545 -2.231,2.717 z m 0.012,-6.726 c -1.234,0.173 -2.225,-0.768 -2.222,-2.091 0.002,-1.323 0.998,-2.543 2.231,-2.717 1.226,-0.172 2.225,0.768 2.222,2.091 -0.002,1.323 -1.005,2.545 -2.231,2.717 z"
   id="path3" />
		<path
   class="fandom_vijf"
   d="m 18.808,39.684 c 1.226,-0.172 2.225,0.759 2.222,2.091 -0.002,1.323 -1.006,2.544 -2.231,2.717 -1.234,0.173 -2.225,-0.768 -2.222,-2.091 0.002,-1.332 0.997,-2.543 2.231,-2.717 z m -2.219,-4.01 c -0.002,1.323 0.989,2.264 2.222,2.091 1.226,-0.172 2.229,-1.394 2.231,-2.717 0.002,-1.323 -0.997,-2.263 -2.222,-2.091 -1.233,0.174 -2.229,1.394 -2.231,2.717 z m -6.245,7.603 c -0.002,1.323 0.997,2.263 2.222,2.091 1.234,-0.173 2.229,-1.394 2.231,-2.717 0.002,-1.331 -0.989,-2.264 -2.222,-2.091 -1.225,0.172 -2.228,1.385 -2.231,2.717 z m 0.013,-6.727 c -0.002,1.323 0.997,2.263 2.222,2.091 1.234,-0.173 2.229,-1.394 2.231,-2.717 0.002,-1.323 -0.989,-2.264 -2.222,-2.091 -1.225,0.173 -2.229,1.394 -2.231,2.717 z M 9,32.47 4.009,29.99 4,45.353 l 5,2.48 z"
   id="path4" />
		<path
   class="fandom_acht"
   d="m 45,43.781 v 15 l -2,2 V 45.85 L 34,44.781 37.031,43 Z m -6.387,14.875 c 1.18,0 2.137,-1.035 2.137,-2.311 0,-1.276 -1.076,-2.596 -2.627,-2.596 -1.18,0 -2.216,0.908 -2.216,2.184 -10e-4,1.277 1.186,2.723 2.706,2.723 z M 38.136,47.078 c -1.188,0 -2.23,0.914 -2.23,2.198 0,1.284 1.195,2.74 2.724,2.74 1.188,0 2.15,-1.041 2.15,-2.325 0,-1.285 -1.083,-2.613 -2.644,-2.613 z"
   id="path5" />
		<path
   class="fandom_zeven"
   d="m 34,44.781 v 15 l 9,1 V 45.85 Z m 4.613,13.875 c -1.519,0 -2.706,-1.446 -2.706,-2.722 0,-1.276 1.036,-2.184 2.216,-2.184 1.551,0 2.627,1.319 2.627,2.596 -10e-4,1.276 -0.957,2.31 -2.137,2.31 z m 0.017,-6.64 c -1.529,0 -2.724,-1.455 -2.724,-2.74 0,-1.284 1.042,-2.198 2.23,-2.198 1.561,0 2.644,1.328 2.644,2.612 0,1.284 -0.963,2.326 -2.15,2.326 z"
   id="path6" />
		<path
   class="fandom_een"
   d="m 60.996,24.633 c 0.162,-0.526 -0.771,-1.556 -2.164,-2.36 -1.471,-0.849 -2.888,-1.127 -3.175,-0.629 -0.009,0.016 -0.017,0.033 -0.024,0.051 L 53.49,20.521 c 0.016,-0.018 0.031,-0.038 0.044,-0.059 0.287,-0.498 -0.67,-1.591 -2.132,-2.435 -1.471,-0.849 -2.888,-1.127 -3.175,-0.629 -0.036,0.062 -0.052,0.133 -0.05,0.212 l -2.723,-1.491 c 0.121,-0.039 0.211,-0.103 0.263,-0.193 0.287,-0.498 -0.67,-1.591 -2.132,-2.435 -1.471,-0.849 -2.888,-1.127 -3.175,-0.629 -0.076,0.131 -0.063,0.306 0.025,0.507 l -2.652,-1.453 c 0.245,-0.018 0.422,-0.095 0.504,-0.236 0.287,-0.498 -0.67,-1.591 -2.132,-2.435 C 34.684,8.396 33.267,8.118 32.98,8.616 32.874,8.8 32.941,9.067 33.142,9.374 l -1.318,-0.722 -5.259,5.308 30.977,17.226 -4.729,8.422 4.825,-5.286 4.487,-9.071 z"
   id="path7" />
		<path
   class="fandom_twee"
   d="m 22.366,22.383 4.198,-8.422 30.977,17.225 -4.729,8.422 z M 31.93,14.23 c -1.471,-0.849 -2.419,-1.937 -2.136,-2.428 l -0.713,1.235 c -0.283,0.491 0.665,1.579 2.136,2.428 0.672,0.388 2.57,1.258 3.115,0.709 l 0.713,-1.235 C 34.5,15.487 32.603,14.618 31.93,14.23 Z m 3.185,-3.185 C 33.644,10.196 32.695,9.108 32.979,8.617 l -0.713,1.235 c -0.283,0.491 0.665,1.579 2.136,2.428 0.671,0.387 2.568,1.259 3.115,0.709 l 0.713,-1.235 c -0.547,0.55 -2.444,-0.321 -3.115,-0.709 z m 4.246,7.431 C 37.89,17.627 36.942,16.539 37.225,16.048 l -0.713,1.235 c -0.283,0.491 0.665,1.579 2.136,2.428 0.671,0.387 2.568,1.259 3.115,0.709 l 0.713,-1.235 c -0.547,0.549 -2.444,-0.322 -3.115,-0.709 z m 3.185,-3.185 c -1.471,-0.849 -2.42,-1.938 -2.136,-2.428 l -0.713,1.235 c -0.283,0.491 0.665,1.579 2.136,2.428 0.671,0.387 2.568,1.259 3.115,0.709 L 45.661,16 c -0.547,0.55 -2.445,-0.321 -3.115,-0.709 z m 4.632,7.72 c -1.471,-0.849 -2.419,-1.938 -2.136,-2.428 l -0.713,1.235 c -0.283,0.491 0.665,1.579 2.136,2.428 0.672,0.388 2.57,1.258 3.115,0.709 l 0.713,-1.235 c -0.546,0.549 -2.443,-0.321 -3.115,-0.709 z m 3.184,-3.184 c -1.471,-0.849 -2.42,-1.937 -2.136,-2.428 l -0.713,1.235 c -0.283,0.491 0.665,1.579 2.136,2.428 0.671,0.387 2.568,1.259 3.115,0.709 l 0.713,-1.235 c -0.546,0.55 -2.444,-0.322 -3.115,-0.709 z m 4.246,7.43 C 53.137,26.408 52.189,25.32 52.472,24.829 l -0.713,1.235 c -0.283,0.491 0.665,1.579 2.136,2.428 0.671,0.387 2.568,1.259 3.115,0.709 l 0.713,-1.235 c -0.546,0.55 -2.444,-0.321 -3.115,-0.709 z m 3.185,-3.184 c -1.471,-0.849 -2.42,-1.938 -2.136,-2.428 l -0.713,1.235 c -0.283,0.491 0.665,1.579 2.136,2.428 0.671,0.387 2.568,1.259 3.115,0.709 l 0.713,-1.235 c -0.547,0.55 -2.444,-0.322 -3.115,-0.709 z"
   id="path8" />
	</g>
</g>
<text
   xml:space="preserve"
   style="font-style:normal;font-variant:normal;font-weight:normal;font-stretch:normal;font-size:5.97333px;line-height:0;font-family:sans-serif;-inkscape-font-specification:sans-serif;text-align:center;text-anchor:middle;white-space:pre;inline-size:115.138;fill:#be9148;fill-opacity:1;stroke-width:0.08"
   x="26.232481"
   y="51.616947"
   id="text9"
   transform="translate(5.8880447,-0.46503095)"><tspan
     x="26.232481"
     y="51.616947"
     id="tspan2">LET'S BUILD!<tspan
   y="51.616947"
   id="tspan3"> </tspan></tspan></text><text
   xml:space="preserve"
   transform="scale(0.08)"
   id="text10"
   style="fill:#00d1b2;font-size:42.66666667px;-inkscape-font-specification:'FiraCode Nerd Font';font-family:'FiraCode Nerd Font';font-weight:normal;font-style:normal;font-stretch:normal;font-variant:normal;white-space:pre;shape-inside:url(#rect10)" /></svg>
