<svg xmlns="http://www.w3.org/2000/svg" width="512px" height="512px" viewBox="0 0 512 512" style="overflow: visible;" data-bbox="48.27145025887313 48 412.98603094737285 406.6188134383839"><g data-icon="" transform="matrix(0.8305539929598306, 0, 0, 0.8305539929598306, 43.378188891375544, 43.378190475531554)" data-uid="o-805ed993616c4896a5a1a4e5cd9f44a9"><path d="m98.492 341.354v-31.494c0-5.443-4.45-9.865-9.865-9.865h-38.352c-5.443 0-9.865 4.422-9.865 9.865v31.494l32.59 19.646z" fill="#ec5469" clip-rule="evenodd" fill-rule="evenodd" data-uid="o-bd962d47a47747ffb7a2ad968be063d4"></path><path d="m413.508 211.977 29.041 20.523 29.041-20.523v-31.125c0-5.613-4.62-10.233-10.233-10.233h-37.644c-5.613 0-10.205 4.621-10.205 10.233z" fill="#6fd7a3" clip-rule="evenodd" fill-rule="evenodd" data-uid="o-75c7c96f20cd49e2915faa9aadda9e4b"></path><path d="m267.183 82.628 29.041 22.372 29.041-22.372v-31.126c0-5.641-4.592-10.233-10.233-10.233h-37.616c-5.613 0-10.233 4.592-10.233 10.233z" fill="#ffc243" clip-rule="evenodd" fill-rule="evenodd" data-uid="o-13673ec1f8114b68b13a733a9d759723"></path><path d="m211.879 82.628v-31.069c0-5.669-4.649-10.29-10.29-10.29h-37.474c-5.669 0-10.318 4.621-10.318 10.29v31.069l29.041 17.872z" fill="#ffc243" clip-rule="evenodd" fill-rule="evenodd" data-uid="o-09e135a2f4644ad1be7fc850832202d0"></path><path d="m98.492 82.628v-31.437c0-5.471-4.479-9.922-9.921-9.922h-38.239c-5.443 0-9.921 4.451-9.921 9.922v31.437l29.04 28.872z" fill="#ffc243" clip-rule="evenodd" fill-rule="evenodd" data-uid="o-8f73cf70550749dda49b72db7f018021"></path><path d="m7.5 97.624v99.357c0 8.249 6.746 14.996 14.995 14.996h146.297 174.388c8.249 0 14.995-6.747 14.995-14.996v-99.357c0-8.249-6.746-14.996-14.995-14.996h-17.915-58.082-55.304-58.082-55.305-58.082-17.915c-8.249 0-14.995 6.746-14.995 14.996z" fill="#ffc243" clip-rule="evenodd" fill-rule="evenodd" data-uid="o-8a3014de900445819cddcd3368e69586"></path><path d="m168.792 211.977c-8.249 0-14.995 6.747-14.995 14.996v99.386c0 8.249 6.746 14.996 14.995 14.996h174.388 146.325c8.249 0 14.995-6.747 14.995-14.996v-99.386c0-8.249-6.746-14.996-14.995-14.996h-17.915-58.082-70.328z" fill="#6fd7a3" clip-rule="evenodd" fill-rule="evenodd" data-uid="o-5dd5042b1b0e48558d336eb0a3db281b"></path><path d="m343.18 341.354h-174.388-70.3-58.082-17.915c-8.249 0-14.995 6.747-14.995 14.996v99.357c0 8.277 6.746 15.024 14.995 15.024h320.685c8.249 0 14.995-6.747 14.995-15.024v-99.357c0-8.25-6.746-14.996-14.995-14.996z" fill="#ec5469" clip-rule="evenodd" fill-rule="evenodd" data-uid="o-6a2beeb78c1f49b38432d1f616c55c11"></path><path d="m285.835 211.977h57.345c8.249 0 14.995-6.747 14.995-14.996v-99.357c0-8.249-6.746-14.996-14.995-14.996h-17.915-39.43c8.249 0 14.995 6.747 14.995 14.996v99.357c0 8.249-6.746 14.996-14.995 14.996z" fill="#fea610" clip-rule="evenodd" fill-rule="evenodd" data-uid="o-76035c578e904b8c8d214650a5c1eb5e"></path><path d="m447.155 226.972v99.386c0 8.249-6.746 14.996-14.995 14.996h57.345c8.249 0 14.995-6.747 14.995-14.996v-99.386c0-8.249-6.746-14.996-14.995-14.996h-17.915-39.43c8.248.001 14.995 6.747 14.995 14.996z" fill="#3ec3a4" clip-rule="evenodd" fill-rule="evenodd" data-uid="o-1e34f0bc018e4032be7e494b89500e0b"></path><path d="m358.175 356.349c0-8.249-6.746-14.996-14.995-14.996h-57.345c8.249 0 14.995 6.747 14.995 14.996v99.357c0 8.277-6.746 15.024-14.995 15.024h57.345c8.249 0 14.995-6.747 14.995-15.024z" fill="#e5374e" clip-rule="evenodd" fill-rule="evenodd" data-uid="o-1455bf4d16494c0cbd10535eaca59405"></path><path d="m77.941 51.191v31.437h20.551v-31.437c0-5.471-4.479-9.922-9.921-9.922h-20.551c5.471 0 9.921 4.451 9.921 9.922z" fill="#fea610" clip-rule="evenodd" fill-rule="evenodd" data-uid="o-12ba564a0cdb443d8dcfbe515df776ce"></path><path d="m191.327 51.559v31.069h20.551v-31.069c0-5.669-4.649-10.29-10.29-10.29h-20.551c5.67 0 10.29 4.621 10.29 10.29z" fill="#fea610" clip-rule="evenodd" fill-rule="evenodd" data-uid="o-c61aa7b78c6744ebbe93bca6af8823cb"></path><path d="m304.742 51.502v31.125h20.523v-31.125c0-5.641-4.592-10.233-10.233-10.233h-20.523c5.612 0 10.233 4.592 10.233 10.233z" fill="#fea610" clip-rule="evenodd" fill-rule="evenodd" data-uid="o-0d320246aa7349e7ac6b67aecc174b0b"></path><path d="m451.038 180.851v31.125h20.551v-31.125c0-5.613-4.62-10.233-10.233-10.233h-20.551c5.641 0 10.233 4.621 10.233 10.233z" fill="#3ec3a4" clip-rule="evenodd" fill-rule="evenodd" data-uid="o-470c39789a604f1bb63671ae1bc5f3fb"></path><path d="m98.492 341.354v-31.494c0-5.443-4.45-9.865-9.865-9.865h-20.55c5.443 0 9.865 4.422 9.865 9.865v31.494z" fill="#e5374e" clip-rule="evenodd" fill-rule="evenodd" data-uid="o-f9e1540e3ef14732b4929afb2a319367"></path><path d="m489.505 204.477h-10.415v-23.625c0-9.778-7.955-17.733-17.733-17.733h-37.645c-9.762 0-17.704 7.955-17.704 17.733v23.625h-41.622c.832-2.346 1.289-4.868 1.289-7.496v-99.357c0-12.404-10.091-22.496-22.495-22.496h-10.415v-23.626c0-9.778-7.955-17.733-17.733-17.733h-37.615c-9.778 0-17.733 7.955-17.733 17.733v23.625h-40.304v-23.568c0-9.81-7.98-17.79-17.79-17.79h-37.475c-9.824 0-17.817 7.98-17.817 17.79v23.569h-40.305v-23.938c0-9.606-7.815-17.421-17.421-17.421h-38.24c-9.606 0-17.422 7.815-17.422 17.421v23.938h-10.415c-12.404 0-22.495 10.091-22.495 22.496v99.357c0 12.404 10.091 22.496 22.495 22.496h39.884c4.143 0 7.5-3.358 7.5-7.5s-3.357-7.5-7.5-7.5h-39.884c-4.133 0-7.495-3.362-7.495-7.496v-99.357c0-4.133 3.362-7.496 7.495-7.496h320.685c4.133 0 7.495 3.362 7.495 7.496v99.357c0 4.133-3.362 7.496-7.495 7.496h-246.161c-4.143 0-7.5 3.358-7.5 7.5s3.357 7.5 7.5 7.5h50.567c-.832 2.346-1.289 4.868-1.289 7.496v99.386c0 2.628.457 5.15 1.289 7.496h-41.594v-23.995c0-9.575-7.79-17.365-17.364-17.365h-38.353c-9.575 0-17.365 7.79-17.365 17.365v23.994h-10.415c-12.404 0-22.495 10.091-22.495 22.496v99.357c0 12.42 10.091 22.524 22.495 22.524h139.862c4.143 0 7.5-3.358 7.5-7.5s-3.357-7.5-7.5-7.5h-139.862c-4.133 0-7.495-3.375-7.495-7.524v-99.357c0-4.133 3.362-7.496 7.495-7.496h320.685c4.133 0 7.495 3.362 7.495 7.496v99.357c0 4.149-3.362 7.524-7.495 7.524h-150.18c-4.143 0-7.5 3.358-7.5 7.5s3.357 7.5 7.5 7.5h150.18c12.404 0 22.495-10.104 22.495-22.524v-99.357c0-2.628-.457-5.149-1.289-7.496h125.119c12.404 0 22.495-10.092 22.495-22.496v-99.386c0-12.404-10.091-22.495-22.495-22.495zm-441.595-129.349v-23.938c0-1.312 1.109-2.421 2.422-2.421h38.239c1.312 0 2.421 1.109 2.421 2.421v23.938zm113.387 0v-23.569c0-1.512 1.29-2.79 2.817-2.79h37.475c1.513 0 2.79 1.278 2.79 2.79v23.569zm113.386 0v-23.626c0-1.481 1.252-2.733 2.733-2.733h37.615c1.507 0 2.733 1.226 2.733 2.733v23.625h-43.081zm146.325 105.723c0-1.481 1.238-2.733 2.704-2.733h37.645c1.481 0 2.733 1.252 2.733 2.733v23.625h-43.082zm-373.098 153.003v-23.994c0-1.304 1.062-2.365 2.365-2.365h38.353c1.281 0 2.364 1.083 2.364 2.365v23.994zm449.09-7.496c0 4.133-3.362 7.496-7.495 7.496h-320.713c-4.133 0-7.495-3.363-7.495-7.496v-99.386c0-4.133 3.362-7.496 7.495-7.496h320.713c4.133 0 7.495 3.362 7.495 7.496z" data-uid="o-6791cbc04fae41bc81b4faecf531ce15"></path></g></svg>
